# AST/ASF file generated using VICON BodyLanguage
# -----------------------------------------------
:version 1.10
:name VICON
:units
  mass 1.0
  length 0.45
  angle deg
:documentation
   .ast/.asf automatically generated from VICON data using
   VICON BodyBuilder and BodyLanguage model FoxedUp or BRILLIANT.MOD
:root
   order TX TY TZ RX RY RZ
   axis XYZ
   position 0 0 0  
   orientation 0 0 0 
:bonedata
  begin
     id 1 
     name lhipjoint
     direction 0.558404 -0.748506 0.357664 
     length 2.4234 
     axis 0 0 0  XYZ
  end
  begin
     id 2 
     name lfemur
     direction 0.34202 -0.939693 0  
     length 7.14567  
     axis 0 0 20  XYZ
    dof rx ry rz
    limits (-160.0 20.0)
           (-70.0 70.0)
           (-60.0 70.0)
  end
  begin
     id 3 
     name ltibia
     direction 0.34202 -0.939693 0   
     length 8.13956   
     axis 0 0 20   XYZ
    dof rx
    limits (-10.0 170.0)
  end
  begin
     id 4 
     name lfoot
     direction 0.0791314 -0.217412 0.972867   
     length 2.00134   
     axis -90 7.62852e-016 20   XYZ
    dof rx rz
    limits (-45.0 90.0)
           (-70.0 20.0)
  end
  begin
     id 5 
     name ltoes
     direction 1.53547e-011 -4.21922e-011 1   
     length 1.00735   
     axis -90 7.62852e-016 20   XYZ
    dof rx
    limits (-90.0 20.0)
  end
  begin
     id 6 
     name rhipjoint
     direction -0.496392 -0.78327 0.374276   
     length 2.31584  
     axis 0 0 0  XYZ 
  end
  begin
     id 7 
     name rfemur
     direction -0.34202 -0.939693 0   
     length 7.47417   
     axis 0 0 -20   XYZ
    dof rx ry rz
    limits (-160.0 20.0)
           (-70.0 70.0)
           (-70.0 60.0)
  end
  begin
     id 8 
     name rtibia
     direction -0.34202 -0.939693 0   
     length 7.69071   
     axis 0 0 -20   XYZ
    dof rx
    limits (-10.0 170.0)
 end
 begin
     id 9 
     name rfoot
     direction -0.103069 -0.28318 0.953512   
     length 2.16135  
     axis -90 -7.62852e-016 -20   XYZ
    dof rx rz
    limits (-45.0 90.0)
           (-20.0 70.0)
  end
  begin
     id 10 
     name rtoes
     direction -1.53581e-011 -4.21904e-011 1   
     length 1.07867   
     axis -90 -7.62852e-016 -20   XYZ
    dof rx
    limits (-90.0 20.0)
  end
  begin
     id 11 
     name lowerback
     direction -0.0258961 0.994776 -0.0987407   
     length 2.19412   
     axis 0 0 0   XYZ
    dof rx ry rz
    limits (-20.0 45.0)
           (-30.0 30.0)
           (-30.0 30.0)
  end
  begin
     id 12 
     name upperback
     direction 0.0402454 0.999185 0.00320666   
     length 2.18445   
     axis 0 0 0   XYZ
    dof rx ry rz
    limits (-20.0 45.0)
           (-30.0 30.0)
           (-30.0 30.0)
  end
  begin
     id 13 
     name thorax
     direction 0.0519376 0.997415 0.0496558   
     length 2.21487   
     axis 0 0 0   XYZ
    dof rx ry rz
    limits (-20.0 45.0)
           (-30.0 30.0)
           (-30.0 30.0)
  end
  begin
     id 14 
     name lowerneck
     direction -0.0921276 0.983211 0.157506   
     length 1.61201   
     axis 0 0 0   XYZ
    dof rx ry rz
    limits (-20.0 45.0)
           (-30.0 30.0)
           (-30.0 30.0)
  end
  begin
     id 15 
     name upperneck
     direction 0.0820814 0.98162 -0.172292   
     length 1.65275   
     axis 0 0 0   XYZ
    dof rx ry rz
    limits (-20.0 45.0)
           (-30.0 30.0)
           (-30.0 30.0)
  end
  begin
     id 16
     name head
     direction 0.0336554 0.996413 -0.0776455  
     length 1.66415  
     axis 0 0 0   XYZ
    dof rx ry rz
    limits (-20.0 45.0)
           (-30.0 30.0)
           (-30.0 30.0)
  end
  begin
     id 17 
     name lclavicle
     direction 0.94696 0.284418 -0.149576  
     length 3.41447  
     axis 0 0 0   XYZ
    dof ry rz
    limits (-20.0 10.0)
           (0.0 20.0)
  end
  begin
     id 18 
     name lhumerus
     direction 1 -0.000130264 -9.81312e-005   
     length 5.19964   
     axis 180 -30 -90   XYZ
    dof rx ry rz
    limits (-60.0 90.0)
           (-90.0 90.0)
           (-90.0 90.0)
  end
  begin
     id 19
     name lradius
     direction 1 -4.48961e-011 1.43854e-026   
     length 3.32189   
     axis 180 -30 -90   XYZ
    dof rx
    limits (-10.0 170.0)
  end
  begin
     id 20
     name lwrist
     direction 1 -4.48958e-011 3.1502e-026   
     length 1.66095   
     axis -1.97692e-014 90 90   XYZ
    dof ry
    limits (-180.0 0.0)
 end
  begin
     id 21 
     name lhand
     direction 1 -4.48927e-011 6.3004e-026   
     length 0.645616   
     axis -4.02019e-014 90 90   XYZ
    dof rx rz
    limits (-90.0 90.0)
           (-45.0 45.0)
  end
  begin
     id 22 
     name lfingers
     direction 1 -4.4904e-011 1.26008e-025   
     length 0.520512   
     axis -8.04039e-014 90 90   XYZ
    dof rx
    limits (0.0 90.0)
  end
  begin
     id 23
     name lthumb
     direction 0.707107 -6.34947e-011 0.707107   
     length 0.747354   
     axis -90 45 2.85299e-015   XYZ
    dof rx rz
    limits (-45.0 45.0)
           (-45.0 45.0)
  end
  begin
     id 24 
     name rclavicle
     direction -0.909391 0.383475 -0.161107   
     length 3.25176  
     axis 0 0 0   XYZ 
    dof ry rz
    limits (-10.0 20.0)
           (-20.0 0.0)
  end
  begin
     id 25 
     name rhumerus
     direction -1 -4.48965e-011 -1.81384e-027  
     length 5.6595   
     axis 180 30 90   XYZ
    dof rx ry rz
    limits (-90.0 60.0)
           (-90.0 90.0)
           (-90.0 90.0)
  end
  begin
     id 26 
     name rradius
     direction -1 -4.48996e-011 -8.09397e-027   
     length 3.37604   
     axis 180 30 90   XYZ
    dof rx
    limits (-10.0 170.0)
  end
  begin
     id 27 
     name rwrist
     direction -1 -4.48927e-011 -1.56669e-026   
     length 1.68802   
     axis 1.21142e-014 -90 -90   XYZ
    dof ry
    limits (-180.0 0.0)
  end
  begin
     id 28
     name rhand
     direction -1 -4.48912e-011 -3.13339e-026   
     length 0.824702   
     axis 1.99937e-014 -90 -90   XYZ
    dof rx rz
    limits (-90.0 90.0)
           (-45.0 45.0)
  end
  begin
     id 29
     name rfingers
     direction -1 -4.49011e-011 -6.26677e-026   
     length 0.664896   
     axis 3.99874e-014 -90 -90   XYZ
    dof rx
    limits (0.0 90.0)
  end
  begin
     id 30
     name rthumb
     direction -0.707107 -6.34931e-011 0.707107   
     length 0.954662   
     axis -90 -45 -2.85299e-015   XYZ
    dof rx rz
    limits (-45.0 45.0)
           (-45.0 45.0)
  end
:hierarchy
  begin
    root lhipjoint rhipjoint lowerback
    lhipjoint lfemur
    lfemur ltibia
    ltibia lfoot
    lfoot ltoes
    rhipjoint rfemur
    rfemur rtibia
    rtibia rfoot
    rfoot rtoes
    lowerback upperback
    upperback thorax
    thorax lowerneck lclavicle rclavicle
    lowerneck upperneck
    upperneck head
    lclavicle lhumerus
    lhumerus lradius
    lradius lwrist
    lwrist lhand lthumb
    lhand lfingers
    rclavicle rhumerus
    rhumerus rradius
    rradius rwrist
    rwrist rhand rthumb
    rhand rfingers
  end

#!OML:ASF F:\VICON\USERDATA\INSTALL\rory3\rory3.ASF
:FULLY-SPECIFIED
:DEGREES
351
root 3.25826 14.5039 1.35806 -13.6484 -24.3869 -3.46689
lowerback 20.5425 -2.13525 0.472244
upperback 5.63821 -2.39977 6.91319
thorax -5.04322 -1.26859 7.84812
lowerneck -3.19166 -8.42663 -15.3934
upperneck 33.0958 -13.6485 9.22705
head 13.4326 -7.132 4.46095
rclavicle 3.00165e-014 1.90833e-014
rhumerus -38.307 -16.8751 -50.0803
rradius 51.3116
rwrist -5.88961
rhand -20.4065 22.7879
rfingers 7.12502
rthumb 5.94736 -7.10858
lclavicle 3.00165e-014 1.90833e-014
lhumerus -18.4111 37.6841 59.8738
lradius 41.7135
lwrist 6.58479
lhand -18.2992 39.0466
lfingers 7.12502
lthumb 7.98157 68.8759
rfemur -29.2675 2.33505 -7.21234
rtibia 59.4819
rfoot -0.702883 -32.4194
rtoes 45.6189
lfemur -40.4264 18.9614 -32.4871
ltibia 72.1057
lfoot -18.1855 9.2826
ltoes 25.4198
352
root 3.2728 14.4616 1.47245 -13.8377 -23.9851 -3.01076
lowerback 21.4033 -2.33054 0.0274332
upperback 5.73003 -2.71262 7.07092
thorax -5.31669 -1.41944 8.42423
lowerneck -3.66373 -8.3287 -15.0327
upperneck 32.7467 -13.2414 8.67677
head 13.2318 -6.93964 4.21603
rclavicle 1.19271e-015 -2.38542e-014
rhumerus -38.8038 -15.9539 -50.5894
rradius 50.7971
rwrist -4.80827
rhand -21.1003 22.7402
rfingers 7.12502
rthumb 5.2775 -7.17408
lclavicle 1.19271e-015 -2.38542e-014
lhumerus -17.1815 36.5023 63.8056
lradius 40.6053
lwrist 7.09736
lhand -18.936 40.2874
lfingers 7.12502
lthumb 7.36689 70.1391
rfemur -32.4758 0.732611 -5.13488
rtibia 54.3501
rfoot -0.526684 -32.1656
rtoes 49.8852
lfemur -40.2917 18.6909 -33.2193
ltibia 72.4817
lfoot -18.8076 9.17188
ltoes 25.549
353
root 3.28047 14.4191 1.59659 -14.0623 -23.5913 -2.19653
lowerback 21.9495 -2.42434 -0.678212
upperback 5.82974 -2.97159 7.15511
thorax -5.40763 -1.54562 9.04005
lowerneck -4.01469 -8.22198 -14.9298
upperneck 32.4227 -12.8696 8.30734
head 13.0678 -6.7805 4.08906
rclavicle -2.70347e-014 2.38542e-014
rhumerus -39.3745 -15.234 -50.9117
rradius 50.2073
rwrist -3.36746
rhand -21.6469 22.8053
rfingers 7.12502
rthumb 4.74977 -7.12144
lclavicle -2.70347e-014 2.38542e-014
lhumerus -15.5823 34.9547 67.9034
lradius 39.3266
lwrist 6.86131
lhand -18.7642 43.426
lfingers 7.12502
lthumb 7.53271 73.2719
rfemur -35.7406 -0.521427 -3.32851
rtibia 49.6199
rfoot -1.45813 -36.4188
rtoes 46.0722
lfemur -40.1739 18.4317 -34.3276
ltibia 72.6653
lfoot -19.2496 9.21222
ltoes 25.2945
354
root 3.32101 14.4482 1.71719 -14.4091 -23.4449 -1.14792
lowerback 22.4656 -2.50943 -1.678
upperback 5.89895 -3.29473 7.22974
thorax -5.47772 -1.70267 9.84203
lowerneck -4.55976 -8.01664 -14.9464
upperneck 32.3676 -12.287 7.76228
head 13.0313 -6.56168 3.94152
rclavicle -7.71285e-014 8.90555e-014
rhumerus -39.8256 -14.0791 -51.2567
rradius 49.5368
rwrist -1.67534
rhand -21.9951 23.2746
rfingers 7.12502
rthumb 4.41353 -6.65942
lclavicle -7.71285e-014 8.90555e-014
lhumerus -14.573 33.3796 71.6503
lradius 38.5268
lwrist 5.86383
lhand -16.2716 37.736
lfingers 7.12502
lthumb 9.93816 67.4814
rfemur -38.753 -2.18273 -1.09447
rtibia 46.0403
rfoot -18.4696 -36.6814
rtoes 61.316
lfemur -39.5161 18.4901 -35.6509
ltibia 72.3145
lfoot -19.7615 9.29493
ltoes 25.5253
355
root 3.37373 14.5116 1.83793 -14.5498 -23.8485 -0.539031
lowerback 22.7082 -2.62829 -2.11613
upperback 6.10291 -3.56214 7.27435
thorax -5.29563 -1.85198 10.2321
lowerneck -5.43284 -7.73585 -14.5563
upperneck 32.3914 -11.5712 7.06829
head 13.0388 -6.24753 3.67837
rclavicle 3.18055e-015 -1.27222e-014
rhumerus -40.0928 -13.1414 -51.954
rradius 48.7424
rwrist 0.554001
rhand -22.2559 23.9634
rfingers 7.12502
rthumb 4.1617 -5.97572
lclavicle 3.18055e-015 -1.27222e-014
lhumerus -13.523 31.6395 75.0272
lradius 37.7123
lwrist 4.53404
lhand -18.1066 32.2773
lfingers 7.12502
lthumb 8.16744 62.0994
rfemur -41.2132 -3.64866 2.12295
rtibia 43.3941
rfoot -23.9573 -30.5887
rtoes 67.0253
lfemur -38.8605 19.0034 -36.4036
ltibia 71.8144
lfoot -20.2679 9.25172
ltoes 26.3212
